<?xml version="1.0" encoding="utf-8"?>
<!-- Generator: Adobe Illustrator 24.3.0, SVG Export Plug-In . SVG Version: 6.00 Build 0)  -->
<svg version="1.1" id="Layer_1" xmlns="http://www.w3.org/2000/svg" xmlns:xlink="http://www.w3.org/1999/xlink" x="0px" y="0px"
	 viewBox="0 0 350 350" enable-background="new 0 0 350 350" xml:space="preserve">
<g>
	<path fill="#2AA9E1" d="M314.761,107.641l-18.857-10.289V53.596c0-2.914-2.155-5.38-5.044-5.769l-115.078-15.58
		c-0.034-0.007-0.068,0-0.106-0.005c-0.182-0.021-0.369-0.02-0.557-0.026c-0.113-0.001-0.225-0.01-0.336-0.008
		c-0.095,0.004-0.186,0.004-0.278,0.008c-0.165,0.016-0.33,0.059-0.494,0.087c-0.216,0.038-0.437,0.067-0.645,0.128
		c-0.122,0.036-0.237,0.093-0.358,0.138c-0.243,0.087-0.488,0.18-0.716,0.301c-0.025,0.013-0.058,0.02-0.083,0.034L35.234,107.641
		c-1.868,1.021-3.034,2.983-3.034,5.113v199.215c0,2.055,1.083,3.957,2.848,5.008c0.916,0.543,1.946,0.814,2.975,0.814
		c0.961,0,1.92-0.235,2.791-0.71l134.186-73.215l134.184,73.215c0.871,0.475,1.832,0.71,2.792,0.71c1.029,0,2.059-0.272,2.975-0.814
		c1.764-1.051,2.851-2.953,2.851-5.008V112.755C317.8,110.625,316.634,108.663,314.761,107.641z M169.176,233.776L43.847,302.158
		V116.212L169.176,47.83V233.776z M284.255,58.683v32.314L205.494,48.02L284.255,58.683z M306.151,302.158l-125.327-68.382V47.828
		l125.327,68.384V302.158z"/>
	<path fill="#2AA9E1" d="M129.69,210.013l-59.153,32.275c-2.819,1.542-3.862,5.079-2.32,7.901c1.059,1.937,3.055,3.035,5.12,3.035
		c0.938,0,1.896-0.228,2.779-0.711l59.153-32.274c2.819-1.542,3.862-5.079,2.319-7.903
		C136.047,209.516,132.513,208.477,129.69,210.013z"/>
	<path fill="#2AA9E1" d="M83.117,191.613c0.941,0,1.896-0.227,2.782-0.71l39.589-21.6c2.822-1.543,3.86-5.08,2.322-7.903
		c-1.539-2.82-5.076-3.861-7.903-2.323l-39.589,21.6c-2.82,1.543-3.86,5.08-2.319,7.901
		C79.055,190.515,81.051,191.613,83.117,191.613z"/>
	<path fill="#2AA9E1" d="M65.671,144.862c0.941,0,1.897-0.227,2.783-0.711l74.475-40.635c2.822-1.543,3.862-5.08,2.323-7.902
		c-1.538-2.818-5.075-3.864-7.901-2.324l-74.475,40.636c-2.825,1.541-3.862,5.078-2.324,7.902
		C61.611,143.764,63.611,144.862,65.671,144.862z"/>
	<path fill="#2AA9E1" d="M279.457,242.289l-59.146-32.275c-2.823-1.536-6.36-0.497-7.903,2.323
		c-1.538,2.824-0.501,6.361,2.324,7.903l59.144,32.274c0.889,0.483,1.845,0.711,2.788,0.711c2.065,0,4.06-1.099,5.118-3.035
		C283.324,247.368,282.283,243.831,279.457,242.289z"/>
	<path fill="#2AA9E1" d="M264.097,190.903c0.885,0.483,1.84,0.71,2.783,0.71c2.065,0,4.061-1.098,5.118-3.035
		c1.544-2.821,0.501-6.358-2.325-7.901l-39.583-21.6c-2.821-1.538-6.357-0.497-7.901,2.323c-1.539,2.823-0.501,6.36,2.323,7.903
		L264.097,190.903z"/>
	<path fill="#2AA9E1" d="M207.068,103.516l74.476,40.635c0.887,0.484,1.842,0.711,2.781,0.711c2.064,0,4.06-1.098,5.119-3.034
		c1.54-2.824,0.5-6.361-2.322-7.902L212.649,93.29c-2.822-1.54-6.359-0.494-7.902,2.324
		C203.208,98.436,204.246,101.973,207.068,103.516z"/>
</g>
</svg>
